<svg xmlns="http://www.w3.org/2000/svg" viewBox="0 0 2785 2998"><defs><style>.a{fill:#31afb4;}.b{fill:#135571;}</style></defs><path class="a" d="M0,1499V2998H2785V0H0V1499Zm2727,0V2940H58V58H2727V1499Z"/><path class="b" d="M1380.2,668.06a109.26,109.26,0,0,0-34.7,9.91c-25.08,12.25-38.86,33.13-43.51,65.93-1.44,10.14-1.4,1519,0,1529.3,5.82,41.7,27.31,65.42,67,73.94,8.73,1.88,13.7,2.27,29.5,2.3,20.3,0,28.47-1,42-5.16,31.68-9.84,49.68-31.58,56.22-67.88,1.69-9.43,1.78-46.1,1.78-767.9,0-723.9-.08-758.45-1.8-768-3.93-21.8-10.66-35.62-23.6-48.45-12.32-12.21-25.4-18.61-46.1-22.53-10.11-1.92-36.6-2.75-46.8-1.46Zm31.1,66.25c5.24,3.06,9.08,9.59,10.64,18.09,1.51,8.27,1.51,1503.4,0,1512.1-1.67,9.6-5.39,15.5-11.84,18.77-7,3.55-14,3.69-20.2.39q-8.81-4.66-11-21.16c-.7-5.42-.94-250.6-.74-759.5.29-721.6.37-751.71,2.11-756.8,2.15-6.3,7.73-12.85,12.09-14.19,5.2-1.6,14.07-.52,18.9,2.3Z"/><path class="b" d="M1898,667.67c-38.6,3.86-63.18,17.67-75.32,42.33a118.85,118.85,0,0,0-6.93,18l-2.25,8.5v368c0,356.1.06,368.23,1.88,375,2.2,8.2,7.66,20.52,11.12,25.1a17.91,17.91,0,0,1,2.5,3.9,31,31,0,0,1-3.09,5.1c-4.14,6-8.28,15.4-10.54,23.9-1.81,6.79-1.87,18.3-1.87,375v368l2.25,8.5a119.62,119.62,0,0,0,6.9,18c3.82,7.8,6.12,11,12.85,17.65s9.9,9,18.6,13.28c16.24,8,36.3,12.07,59.5,12.07,52,0,88.16-21.68,97.41-58.4,2-7.72,2-11.35,2-160.25V1979h-76l-.25,149.75c-.23,139.2-.37,150-1.94,152.85-4.15,7.65-12.81,11.19-24.61,10.07-9-.85-15-4.06-18.21-9.77l-2.49-4.4v-335l61.75-.25L2013,1942V1743.15c0-193.2,0-199.06-1.94-206.35a65.88,65.88,0,0,0-11.38-23.7l-3.48-4.4,3.85-5.1a76.48,76.48,0,0,0,6.87-11.6c6.51-14,6.08,1.4,6.08-217.7V1075l-61.75-.25-61.75-.25v-335l2.47-4.4c3.11-5.51,9.13-8.86,17.53-9.74,11.9-1.24,21.19,2.44,25.32,10,1.56,2.88,1.7,13.65,1.93,152.85L1937,1038h76.5l-.5-154.75-.5-154.75-2.75-8.1c-9.88-29.15-37.85-48-77.55-52.3-9.6-1-26-1.24-34.2-.43Zm38.75,630.08-.25,170.75-2.2,4.1c-3.58,6.7-4.8,7.09-21.4,7-14-.09-14.82-.2-17.25-2.44a24.57,24.57,0,0,1-4.35-6c-1.71-3.47-1.81-12-2-172.65-.14-93,0-169.56.2-170.25.35-1,5.9-1.25,24-1.25H1937l-.25,170.75Zm-7.45,240.7c1,.42,3,2.8,4.5,5.4l2.7,4.65.25,170.75L1937,1890h-48l.25-170.25c.2-136.4.51-170.83,1.55-173.15a23.82,23.82,0,0,1,4.55-6l3.25-3.1,14.45.1c7.9.05,15.27.44,16.25.85Z"/><path class="b" d="M2402,668.15a108.65,108.65,0,0,0-35,10.09c-9.2,4.43-11.55,6.12-19,13.66-10,10.17-14.09,16.7-18.66,30-6.31,18.36-6.36,19.3-6.36,125.9V944l38-.25,38-.25v-89c0-51.2.42-93,1-98.3,1.54-14.4,6-21.76,14.81-24.2,11.8-3.27,21.89,1.62,26.4,12.8l2.3,5.7V807c0,58.2-.34,65.23-4.6,96C2433,945.41,2420,994.1,2384,1108.2c-37.13,117.6-51.28,175.34-58.53,238.8-2.19,19.2-3.24,98.64-1.48,112.6,2.05,16.3,6.87,30.67,13.86,41.3,2,3.1,4,6.07,4.38,6.65s-.79,3.15-2.56,5.65c-7.69,10.86-13.35,26.9-15.68,44.4-1.67,12.58-.6,94.5,1.47,112.4,7.6,65.72,22.1,124.4,61,247,33.79,106.4,47.75,159.88,53.45,204.8,3.25,25.61,4.26,51.3,3.91,99.7-.32,43.9-.39,45.14-2.58,50.55a28.47,28.47,0,0,1-5.05,8.24c-8.5,8.15-23.84,7.31-30.67-1.69-6.15-8.09-5.92-4-6.29-109.1l-.34-96-38-.25L2323,2073v96.3c0,105.8.07,107.2,6,125,4.21,12.6,8.88,20.56,17.21,29.3,11.69,12.28,24.87,19.19,44.77,23.48,13.9,3,44.54,3.29,58.3.55,39.54-7.87,60.81-29.73,68.36-70.23,1.65-8.87,1.84-15.6,1.79-64.9,0-56.2-.63-69.4-4.51-101.5-7.28-60.24-18.88-105.5-59.61-232.5-34.47-107.5-47.4-157.39-52.85-204-2.15-18.36-3.79-64.8-3.3-93.2l.42-24.1,3-5.9c3.89-7.75,8.83-10.6,18.33-10.6,10.9,0,16.71,4,20.88,14.5,1.58,3.94,1.74,11.85,2,95l.3,90.75H2520v-82.75c0-48.7-.43-87.61-1.05-94.55-1.83-20.4-8.2-39.91-16.69-51.1l-3-3.9,3.37-4.7c8.64-12.06,14.53-30.4,16.3-50.7.61-6.94,1-45.85,1-94.55V1276h-75.9l-.29,90.7c-.32,98.8-.06,94.25-5.85,102.4-6.46,9.1-23.68,10.18-31.86,2-6.4-6.4-6.6-8.1-6.44-56.6.08-23.7.64-48.61,1.25-55.5,5.09-57.59,16.38-102.5,59.09-235,51.38-159.4,61.29-215.22,59.72-336.5-.4-30.8-.89-42-2.13-48.5-5.64-29.8-19.45-49.78-42.19-61-18.18-9-47.1-12.87-73.4-9.81Z"/><path class="b" d="M476.7,674.05c-14.5,2.3-30.37,10.8-38,20.35-5.59,7-10.32,17.5-12.44,27.6-1.67,8-1.78,18.5-1.78,173.5,0,160.1.06,165.18,1.93,170.9,5.49,16.81,23.37,34.89,54.57,55.19,18.3,11.9,27,18.67,36.56,28.51,8.47,8.7,15.54,18.7,19.37,27.4,5.24,11.87,5.07,6.8,5.07,155.8,0,135.7,0,138.88-2,142.6l-1.95,3.8-20.25-.1-20.25-.1-2.05-3.5c-2-3.48-2.05-4.25-2.3-144.75L493,1190H423.9l.35,141.75c.31,127.1.52,142.43,2,148.35a84,84,0,0,0,9.09,23.1l3.34,5.6-3.36,5.3c-3.85,6.08-6.73,13.3-9.1,22.8-1.47,5.92-1.68,21.25-2,148.35L423.9,1827H493l.25-141.25c.25-140.5.26-141.27,2.3-144.75l2.05-3.5,20.35,0,20.35,0,1.85,4c1.77,3.87,1.85,10.35,1.85,142.55,0,149.8.21,143.73-5.39,156.4-8.06,18.23-23.21,33.59-51.61,52.35-21.8,14.39-31.34,21.79-41.06,31.85-9.09,9.4-14.84,17.94-17.5,26-1.88,5.72-1.94,10.8-1.94,170.9,0,154.8.11,165.53,1.8,173.5,6.29,29.74,26.6,46.53,58.9,48.67,16,1.06,28-2.55,38.9-11.74,5.46-4.58,13.18-14.43,16.25-20.73,1.12-2.3,2.37-4.2,2.75-4.2s1,7,1.4,15.5l.7,15.5h36.4c20,0,36.4-.11,36.4-.25s-.57-1.85-1.25-3.75c-1-2.76-1.36-87-1.75-398.5l-.5-395-2.26-7.3c-2.19-7.1-7.62-18.78-10.51-22.6-1.29-1.71-1.06-2.5,2.37-8,4.36-7,8.33-18.1,9.86-27.6.71-4.47,1.06-127.1,1.09-392.5,0-226.8.42-388.89,1-393a66.69,66.69,0,0,1,1.55-8.75c.61-1.64-1.65-1.75-35.85-1.75H545.2l-.7,15.5c-.38,8.5-1,15.5-1.35,15.5s-1.9-2.4-3.46-5.4C533,691.8,520.82,680.7,508.2,676c-6.59-2.48-22-3.41-31.5-1.9Zm54,57.81a20.2,20.2,0,0,1,10.26,12c.7,2.56,1,63.4.79,185.9l-.25,182.1-15.8-10.51c-19.2-12.77-26.47-19.57-29.8-27.89l-2.4-6-.29-159.4c-.33-176.6-.7-166.33,6.19-173a22,22,0,0,1,8.3-4.75c6.5-1.83,17.91-1.08,23,1.52ZM541,2273.2c-2.42,9-11.56,14.8-23.46,14.8-11.2,0-21-5.79-23.22-13.7-.43-1.54-.78-74.6-.78-162.3,0-130.2.25-160.46,1.33-164.7,2.81-10.94,9.17-17.27,33.57-33.43l13.1-8.67.25,182c.17,125.5-.07,183.26-.79,185.95Z"/><polygon class="b" points="284 1508.5 284 2338 322 2338 360 2338 360 1508.5 360 679 322 679 284 679 284 1508.5 284 1508.5"/><path class="b" d="M679,1508.5V2338h73V1950.55c0-279.7.31-388.9,1.11-392.65,2.33-10.89,11.49-16.24,23.79-13.9q10.5,2,15.14,8.8l2.46,3.6.25,390.8L795,2338h72l.25-389.75.25-389.75,2.51-5c4.27-8.48,11.59-11.43,23.59-9.5,7.6,1.22,12.6,4.66,15.55,10.7l2.35,4.8.25,389.25L912,2338h73l-.3-399.25-.3-399.25-2.15-9.3a99.76,99.76,0,0,0-5-15.5l-2.85-6.2,2.85-6.2a99.76,99.76,0,0,0,5-15.5l2.15-9.3.3-399.25L985,679H912l-.25,389.25-.25,389.25-2.19,4.7c-2.66,5.71-7.81,9.34-15.31,10.8-11.6,2.25-19.69-1-24-9.5l-2.51-5-.25-389.75L867,679H795l-.25,390.8-.25,390.8-2.71,4.1c-3.9,5.9-10.09,8.63-19.69,8.7s-13.85-2.24-17.28-9.2l-2.32-4.7-.25-390.25L752,679H679v829.5Zm75.2,6.45c-1.87,3.6-3.58,6.73-3.8,7s-.4-5.9-.4-13.5v-13.9l3.8,7,3.8,7-3.4,6.55Zm119.7-8.45c1.14,1.75.85,2.75-2.3,8-2,3.3-3.62,6.42-3.65,7s-1.57-2.1-3.4-5.9l-3.35-7,3.1-6.75,3.1-6.75,2.6,4.7c1.44,2.6,3.18,5.59,3.9,6.7Z"/><path class="b" d="M1047,1508.5V2338h75l.25-204.75.25-204.75,6,.3c14.3.73,24.88,4.61,31,11.4,7.6,8.4,6.92-8,7.58,181.3.52,150.4.78,171.41,2.22,182.2,1.93,14.4,3,19.64,5.82,28.1l2,6.2h39.5c37.2,0,39.46-.1,38.73-1.8-2.17-5.1-5.41-18-6.83-27.2-3.81-24.72-3.91-29.1-4.3-191.5-.42-178.5,0-167.62-7.52-183.4-8.72-18.24-27.68-30.78-53-35-14.6-2.46-14.19-2-4.6-4.62,35.7-9.6,57.22-31.17,63.28-63.44,1.44-7.65,1.59-23,1.32-138.55l-.3-130-2.18-7.7c-5.31-18.7-13-31.52-24.72-41l-6.5-5.28,2.7-1.9c5.09-3.57,15.68-15.2,19.12-21,4.48-7.55,8.72-19.7,10.57-30.3,2.31-13.2,2.22-257.25-.1-269.5-3.08-16.3-10-29.56-20.89-40.29-10.74-10.54-23.3-17.37-41.5-22.59l-9.5-2.72,5-.72c38.3-5.48,59.7-21.77,66.44-50.58,1.89-8.12,2-13.8,2.35-168.9.4-162.8.5-167.29,4.31-192,1.42-9.2,4.66-22.1,6.83-27.2.73-1.7-1.53-1.8-38.73-1.8h-39.5l-2,6.2c-2.81,8.46-3.89,13.7-5.82,28.1-1.44,10.79-1.7,31.9-2.23,182.2-.57,160.8-.7,170.22-2.42,174-2.22,4.9-8,11-12.78,13.5-5.14,2.66-14.3,4.77-22.4,5.16l-7,.34-.25-204.75L1122,679h-75v829.5Zm102.5-355.4c5.89,1.61,12.57,8.9,15,16.4,1.92,5.83,2,9.7,2,140,0,149.8.49,139.53-7.07,148.3-5.25,6.1-10.43,7.7-24.93,7.7h-12l-.25-156.75L1122,1152h11.75c6.5,0,13.54.49,15.75,1.1Zm2.8,400.8c6,2.88,10.34,8.1,12.5,15.1,1.57,5.08,1.7,15.7,1.7,139,0,150.1.5,140.13-7.55,149.3-5.65,6.43-10,7.84-24.55,8l-11.9.16-.25-156c-.14-85.8,0-156.61.25-157.35.4-1.07,3-1.27,12.75-1,10.2.33,13,.78,17,2.7Z"/><path class="b" d="M1555,1508.45V2338h51.5c52.8,0,64.55-.6,79.2-4,36.8-8.61,57.66-29.66,65-65.58,1.69-8.33,1.81-17.8,1.81-147.4,0-154.4.45-144.07-7-159.4-9.7-20.08-33.35-34.42-62.85-38.09-4.7-.59-5.7-1-5.7-2.61,0-1.27.75-1.9,2.25-1.9a83,83,0,0,0,11.55-2.49q40.8-10.9,54.24-39c7.85-16.43,7.33-6,7.74-155.5.39-138.6.08-152.56-3.7-167.5-4.28-16.9-14.57-32.83-27.18-42.07l-5.1-3.73,2.85-2a126.36,126.36,0,0,0,10.56-9.8c13.33-13.47,19.93-30.2,21.88-55.4.64-8.27.89-61.6.67-146.5-.38-149.8.16-139-7.93-155.9-9.35-19.51-33.13-35.19-60.93-40.16-5.4-1-6.9-1.61-6.9-2.94s1.3-1.85,5.9-2.37c9.78-1.12,24.1-5.42,34-10.23a61.38,61.38,0,0,0,33.78-42.1c1.71-7.34,1.82-15.9,1.82-146.3,0-137.5,0-138.57-2.12-148-7.31-32.7-25.73-52.62-57.28-61.94-17.15-5.07-20.1-5.28-80.9-5.73l-57.2-.43v829.55Zm105.6-763.7a25.64,25.64,0,0,1,12.09,14.45c1.7,5,1.83,13.6,2.11,140.8.21,94.8,0,137.42-.79,141.9-1.78,10.4-5.87,16.45-14,20.68-2.85,1.48-5.9,1.83-16.5,1.87l-13,0-.25-161.35L1630,741.8l13.25.4c11.2.34,13.88.73,17.35,2.55Zm.1,385a25.67,25.67,0,0,1,12.09,15.2c1.58,5.09,1.71,16.4,1.71,152,0,142.8,0,146.65-2,152.5-2.31,7.1-8.15,13.56-14.14,15.64-2.44.85-8.4,1.36-15.9,1.36h-12l-.25-168.5c-.14-92.7,0-169.11.25-169.85.4-1.07,3.15-1.27,13.25-1,10.7.34,13.43.75,17,2.6Zm-6.6,421.2c10.76,2,17.77,10.1,19.92,23,.75,4.52,1,50.3.78,150.5l-.3,144-2.26,5.6a26.26,26.26,0,0,1-12.24,13.55c-2.88,1.52-5.8,1.85-16.5,1.85h-13l-.25-168.5c-.14-92.7,0-169,.2-169.7.59-1.58,15.75-1.77,23.65-.3Zm2.8,402.6a23.63,23.63,0,0,1,15.28,14.2l2.32,5.7v280l-2.29,5.7c-2.84,7.1-9.26,13.11-15.71,14.71-2.43.6-9.35,1.09-15.45,1.09h-11V2114.15c0-88.5.31-161.16.7-161.54,1.34-1.32,20.9-.58,26.2,1Z"/><path class="b" d="M2074.75,1098.25c-.14,230.6-.14,603.85,0,829.5L2075,2338h72l.25-389.75c.24-377.5.31-389.88,2.1-394,3.76-8.55,12.35-12.24,24.05-10.33,7.8,1.28,13.2,5,15.92,10.83l2.18,4.7.25,389.25L2192,2338h72l-.3-399.25c-.23-310.4-.58-400.59-1.55-405.25a133.87,133.87,0,0,0-4.3-14.5c-1.69-4.7-3-9.39-3-10.5s1.36-5.8,3-10.5a133.87,133.87,0,0,0,4.3-14.5c1-4.68,1.32-93.65,1.55-405.25L2264,679h-72l-.25,389.75c-.24,378.6-.3,389.85-2.11,393.25-3.72,7-7.14,9.36-15.84,11-11.4,2.21-19.51-1-23.79-9.55l-2.51-5-.25-389.75L2147,679h-72l-.25,419.25ZM2154,1508.5c0,.11-2,3.25-4.5,7l-4.5,6.75v-27.4l4.5,6.75c2.47,3.7,4.5,6.84,4.5,7Z"/></svg>